<svg xmlns="http://www.w3.org/2000/svg" xmlns:xlink="http://www.w3.org/1999/xlink" viewBox="0 0 37.53 39.01"><defs><style>.cls-1{fill:url(#Безымянный_градиент_69);}.cls-2{fill:url(#Безымянный_градиент_69-2);}.cls-3{fill:#fff;stroke:#fff;stroke-miterlimit:10;stroke-width:0.5px;}</style><linearGradient id="Безымянный_градиент_69" x1="10.86" y1="13.9" x2="37.53" y2="13.9" gradientUnits="userSpaceOnUse"><stop offset="0" stop-color="#1ef5b2"/><stop offset="1" stop-color="#43c7de"/></linearGradient><linearGradient id="Безымянный_градиент_69-2" x1="0" y1="24.78" x2="28.46" y2="24.78" xlink:href="#Безымянный_градиент_69"/></defs><title>Ресурс 1</title><g id="Слой_2" data-name="Слой 2"><g id="Слой_1-2" data-name="Слой 1"><path class="cls-1" d="M37.38,7.19,31.92.27A.71.71,0,0,0,31.36,0H17a.7.7,0,0,0-.56.27L11,7.19a.7.7,0,0,0-.15.44V27.08a.72.72,0,0,0,.71.71H36.81a.72.72,0,0,0,.71-.71V7.63A.66.66,0,0,0,37.38,7.19ZM35.44,7H24.91V1.43H31ZM17.38,1.43h6.1V7H13ZM12.29,26.37V8.47H36.1v17.9Z"/><circle class="cls-2" cx="14.23" cy="24.78" r="14.23"/><path class="cls-3" d="M14.23,18.57A6.21,6.21,0,1,1,8,24.78,6.2,6.2,0,0,1,14.23,18.57Zm0-1.43a7.65,7.65,0,1,0,7.65,7.65,7.67,7.67,0,0,0-7.65-7.65Z"/><path class="cls-3" d="M16,27a3,3,0,0,1-1.82.67,2.87,2.87,0,1,1,0-5.73,2.6,2.6,0,0,1,2,.86l1.05-1.05a4.42,4.42,0,0,0-3.06-1.24,4.3,4.3,0,1,0,0,8.6,4.35,4.35,0,0,0,2.68-1Z"/></g></g></svg>