<?xml version="1.0" encoding="UTF-8"?>
<!DOCTYPE svg PUBLIC "-//W3C//DTD SVG 1.1//EN" "http://www.w3.org/Graphics/SVG/1.1/DTD/svg11.dtd">
<!-- Creator: CorelDRAW X7 -->
<svg xmlns="http://www.w3.org/2000/svg" xml:space="preserve" width="280px" height="91px" version="1.1" style="shape-rendering:geometricPrecision; text-rendering:geometricPrecision; image-rendering:optimizeQuality; fill-rule:evenodd; clip-rule:evenodd"
viewBox="0 0 26590 8591"
 xmlns:xlink="http://www.w3.org/1999/xlink">
 <defs>
  <style type="text/css">
   <![CDATA[
    .fil1 {fill:#FEFEFE}
    .fil0 {fill:#FEFEFE;fill-rule:nonzero}
   ]]>
  </style>
 </defs>
 <g id="Слой_x0020_1">
  <metadata id="CorelCorpID_0Corel-Layer"/>
  <g id="_2486308572048">
   <path class="fil0" d="M2329 0l21933 0c639,0 1221,262 1644,684l3 4c420,421 681,1002 681,1641l0 3933c0,640 -262,1222 -684,1644l-3 4c-422,420 -1003,681 -1641,681l-21933 0c-640,0 -1222,-262 -1644,-684l-4 -4c-420,-422 -681,-1002 -681,-1641l0 -3933c0,-640 262,-1222 684,-1644l4 -4c421,-420 1002,-681 1641,-681zm21933 285l-21933 0c-563,0 -1074,230 -1444,600 -370,370 -600,881 -600,1444l0 3933c0,563 230,1074 600,1444 370,370 881,600 1444,600l21933 0c562,0 1073,-230 1443,-600 370,-370 600,-881 600,-1444l0 -3933c0,-563 -230,-1074 -600,-1444 -370,-370 -881,-600 -1443,-600z"/>
   <g>
    <path class="fil0" d="M14274 4103c-27,-400 -144,-1000 -543,-1000 -220,0 -340,158 -340,335 0,428 434,640 764,766 6,58 6,114 6,173 0,664 -279,1522 -901,1522 -208,0 -353,-105 -438,-266 331,-339 498,-750 498,-1157 0,-147 -26,-382 -223,-382 -360,0 -931,657 -931,1366 0,157 27,285 68,386 -132,103 -277,156 -408,156 -204,0 -293,-135 -293,-427 0,-750 617,-1700 1362,-2461l-122 -64 -67 110c-167,96 -319,124 -440,124 -329,0 -437,-170 -664,-170 -204,0 -402,117 -550,593l-129 421 110 0 51 -158c68,-201 122,-278 229,-278 119,0 192,111 337,111 287,0 514,-400 932,-464 -1049,781 -1934,1482 -1934,2206 0,390 246,711 775,711 355,0 636,-127 856,-318 142,236 396,318 656,318 922,0 1348,-1050 1348,-1936 0,-73 -3,-146 -9,-217zm-1186 119c74,0 99,113 99,271 0,359 -159,741 -411,1035 -36,-105 -53,-227 -53,-350 0,-485 204,-956 365,-956zm4533 1016l-111 0 -102 279c-141,383 -266,456 -364,456 -68,0 -113,-34 -113,-121 0,-42 10,-96 33,-167l574 -1708c48,-144 76,-283 76,-406 0,-272 -138,-467 -527,-467 -464,0 -820,257 -1231,1153l787 -2691c-391,151 -801,233 -1350,238l-37 122c289,0 393,70 393,224 0,45 -8,99 -25,159l-1150 3867 819 0 186 -639c383,-1170 909,-2145 1241,-2145 81,0 113,54 113,133 0,68 -23,159 -54,248l-523 1563c-54,161 -85,314 -85,447 0,283 144,474 525,474 280,0 611,-110 778,-596l147 -423zm1286 -2995c0,214 153,351 421,351 328,0 599,-221 599,-536 0,-223 -152,-362 -427,-362 -330,0 -593,198 -593,547zm-782 3092c-57,170 -88,317 -88,444 0,302 170,478 525,478 291,0 616,-125 783,-596l147 -424 -111 0 -104 280c-141,375 -260,456 -364,456 -74,0 -116,-37 -116,-119 0,-44 10,-98 36,-169l608 -1773c37,-111 63,-226 63,-340 0,-251 -127,-469 -511,-469 -334,0 -642,139 -803,593l-159 442 111 0 113 -297c121,-327 232,-455 374,-455 61,0 98,37 98,116 0,45 -10,102 -37,173l-565 1660zm3265 -2023l667 0 18 -116 -652 0 278 -963c-252,54 -515,76 -843,82l-252 881 -532 0 -28 116 526 0 -580 2024c-37,128 -57,247 -57,357 0,334 184,564 590,564 409,0 713,-216 871,-683l116 -337 -110 0 -88 241c-127,342 -298,495 -459,495 -104,0 -172,-53 -172,-172 0,-35 5,-75 17,-117l690 -2372zm3123 251c0,-311 -261,-459 -603,-459 -1204,0 -2093,1326 -2093,2337 0,536 394,816 909,816 619,0 1096,-389 1342,-777l-90 -45c-306,356 -639,474 -845,474 -269,0 -447,-129 -447,-558 0,-131 11,-263 34,-399 783,-209 1793,-684 1793,-1389zm-731 -351c56,0 93,42 93,192 0,424 -203,785 -497,1054 -167,149 -390,276 -638,386 170,-821 692,-1632 1042,-1632z"/>
    <g>
     <path class="fil1" d="M6425 3815c-289,-305 -710,-498 -1181,-498 -872,0 -1578,660 -1578,1474 0,814 706,1473 1578,1473 422,0 890,-173 1176,-491l0 0 -1308 -982 1312 -977 1 1 0 0zm-11 1968l-1 0 1 0z"/>
    </g>
    <path class="fil0" d="M8384 6264c997,0 1577,-690 1577,-1472 0,-783 -580,-1467 -1577,-1467 -992,0 -1572,684 -1572,1467 0,782 580,1472 1572,1472zm0 -921c-319,0 -499,-238 -499,-551 0,-308 180,-545 499,-545 324,0 504,237 504,545 0,313 -180,551 -504,551z"/>
    <path class="fil0" d="M2663 3261c325,0 586,-261 586,-586 0,-325 -261,-585 -586,-585 -325,0 -586,260 -586,585 0,325 261,586 586,586zm522 3003l0 -2800 -1044 0 0 2800 1044 0z"/>
   </g>
  </g>
 </g>
</svg>
