<svg xmlns="http://www.w3.org/2000/svg" xmlns:xlink="http://www.w3.org/1999/xlink" viewBox="0 0 37.53 39.01"><defs><style>.cls-1{fill:url(#Безымянный_градиент_69);}.cls-2{fill:url(#Безымянный_градиент_69-2);}.cls-3,.cls-4,.cls-5{fill:#fff;}.cls-3,.cls-4{stroke:#fff;stroke-miterlimit:10;}.cls-3{stroke-width:0.5px;}</style><linearGradient id="Безымянный_градиент_69" x1="10.86" y1="13.9" x2="37.53" y2="13.9" gradientUnits="userSpaceOnUse"><stop offset="0" stop-color="#1ef5b2"/><stop offset="1" stop-color="#43c7de"/></linearGradient><linearGradient id="Безымянный_градиент_69-2" x1="0" y1="24.78" x2="28.46" y2="24.78" xlink:href="#Безымянный_градиент_69"/></defs><title>Ресурс 3</title><g id="Слой_2" data-name="Слой 2"><g id="Слой_1-2" data-name="Слой 1"><path class="cls-1" d="M37.38,7.19,31.92.27A.71.71,0,0,0,31.36,0H17a.7.7,0,0,0-.56.27L11,7.19a.7.7,0,0,0-.15.44V27.08a.72.72,0,0,0,.71.71H36.81a.72.72,0,0,0,.71-.71V7.63A.66.66,0,0,0,37.38,7.19ZM35.44,7H24.91V1.43H31ZM17.38,1.43h6.1V7H13ZM12.29,26.37V8.47H36.1v17.9Z"/><circle class="cls-2" cx="14.23" cy="24.78" r="14.23"/><path class="cls-3" d="M20.16,19.39l-.07-.18-.18-.07a5.17,5.17,0,0,0-5.48,1.18L13,21.7,10,21.85,7.36,24.44l2.23.71L8.77,26l.48.48L8.18,28.1l3,3L12.84,30l.48.48.83-.83.71,2.23,2.59-2.59.15-3.09L19,24.87A5.18,5.18,0,0,0,20.16,19.39ZM9,24l1.35-1.35,1.81-.09-1.86,1.86Zm2.35,6-2-2,.59-.9,2.35,2.35Zm5.29-1-1.35,1.35L14.83,29l1.86-1.86Zm-3.28.34L10,26,15,20.92a4.31,4.31,0,0,1,4.39-1,4.32,4.32,0,0,1-1,4.39Z"/><path class="cls-4" d="M17.18,21.47a.65.65,0,1,0,.46.19A.64.64,0,0,0,17.18,21.47Zm.15.8a.22.22,0,1,1,0-.31A.22.22,0,0,1,17.33,22.27Z"/><path class="cls-5" d="M6.29,30l1-1,.61.61-1,1Zm3,3-.61-.61,1-1,.61.61ZM7,31.64,8.44,30.2l.61.61L7.61,32.25Z"/></g></g></svg>