<svg xmlns="http://www.w3.org/2000/svg" xmlns:xlink="http://www.w3.org/1999/xlink" viewBox="0 0 37.53 39.01"><defs><style>.cls-1{fill:url(#Безымянный_градиент_69);}.cls-2{fill:url(#Безымянный_градиент_69-2);}.cls-3{fill:#fff;stroke:#fff;stroke-miterlimit:10;stroke-width:0.25px;}</style><linearGradient id="Безымянный_градиент_69" x1="10.86" y1="13.9" x2="37.53" y2="13.9" gradientUnits="userSpaceOnUse"><stop offset="0" stop-color="#1ef5b2"/><stop offset="1" stop-color="#43c7de"/></linearGradient><linearGradient id="Безымянный_градиент_69-2" x1="0" y1="24.78" x2="28.46" y2="24.78" xlink:href="#Безымянный_градиент_69"/></defs><title>Ресурс 2</title><g id="Слой_2" data-name="Слой 2"><g id="Слой_1-2" data-name="Слой 1"><path class="cls-1" d="M37.38,7.19,31.92.27A.71.71,0,0,0,31.36,0H17a.7.7,0,0,0-.56.27L11,7.19a.7.7,0,0,0-.15.44V27.08a.72.72,0,0,0,.71.71H36.81a.72.72,0,0,0,.71-.71V7.63A.66.66,0,0,0,37.38,7.19ZM35.44,7H24.91V1.43H31ZM17.38,1.43h6.1V7H13ZM12.29,26.37V8.47H36.1v17.9Z"/><circle class="cls-2" cx="14.23" cy="24.78" r="14.23"/><polygon class="cls-3" points="18.36 20.59 17.19 21.76 19.7 24.27 17.19 26.79 18.36 27.96 22.05 24.27 18.36 20.59"/><polygon class="cls-3" points="11.27 21.76 10.1 20.59 6.41 24.27 10.1 27.96 11.27 26.79 8.76 24.27 11.27 21.76"/><rect class="cls-3" x="8.96" y="23.95" width="10.5" height="1.66" transform="translate(-13.93 29.67) rotate(-70.02)"/></g></g></svg>